<?xml version="1.0" encoding="utf-8"?>
<svg xmlns="http://www.w3.org/2000/svg" fill="none" height="69" width="69">
  <path d="M17.25 63.25q-3.594 0-6.11-2.516-2.514-2.515-2.515-6.109V46h8.625V5.75h43.125v48.875q0 3.593-2.516 6.11-2.515 2.514-6.109 2.515zm34.5-5.75q1.222 0 2.048-.827.827-.825.827-2.048V11.5H23V46h25.875v8.625q0 1.222.827 2.048.825.827 2.048.827M25.875 25.875v-5.75H51.75v5.75zm0 8.625v-5.75H51.75v5.75zm-8.625 23h25.875v-5.75h-28.75v2.875q0 1.222.827 2.048.825.827 2.048.827m0 0h-2.875 28.75z" fill="#2B1C11"/>
</svg>