<?xml version="1.0" encoding="utf-8"?>
<svg xmlns="http://www.w3.org/2000/svg" fill="none" height="84" width="329">
  <g clip-path="url(#a)">
    <path d="M20.444 6.32c0-1.517 1.26-2.952 3.8-4.303C26.762.687 30.1 0 34.214 0s5.248.665 6.192 1.975c.672.915 1.008 1.788 1.008 2.578v2.974c7.514.79 12.74 2.183 15.658 4.158 1.197.79 1.805 1.539 1.805 2.266 0 3.431-.818 7.111-2.434 11.062-1.638 3.95-3.212 5.926-4.744 5.926s-1.134-.291-2.603-.894c-4.387-1.913-8.04-2.87-10.915-2.87s-4.849.27-5.877.79c-1.029.52-1.553 1.331-1.553 2.412s.734 1.934 2.204 2.516c1.469.603 3.274 1.102 5.436 1.539s4.513 1.143 7.074 2.12a43 43 0 0 1 7.136 3.556q3.306 2.09 5.479 6.175c1.47 2.745 2.204 5.51 2.204 8.359 0 2.848-.273 5.177-.798 7.006-.525 1.851-1.448 3.764-2.75 5.74-1.3 1.974-3.253 3.742-5.877 5.28s-5.772 2.682-9.424 3.41v1.58c0 1.518-1.26 2.953-3.8 4.304-2.518 1.352-5.856 2.017-9.97 2.017s-5.247-.665-6.192-1.975c-.672-.915-1.008-1.788-1.008-2.578v-2.974q-6.485-.592-11.271-1.87C3.064 72.938.02 71.15.02 69.237c0-3.68.525-7.527 1.595-11.52 1.07-3.991 2.33-5.987 3.8-5.987s3.022.894 8.27 2.661c5.247 1.788 9.214 2.661 11.88 2.661s4.387-.27 5.185-.831c.797-.562 1.196-1.373 1.196-2.412 0-1.04-.735-1.955-2.204-2.724-1.47-.748-3.295-1.372-5.478-1.83-2.204-.457-4.576-1.185-7.137-2.183s-4.933-2.141-7.137-3.451-4.03-3.265-5.478-5.822q-2.205-3.867-2.204-8.982c0-12.122 6.045-19.212 18.156-21.25V6.28z" fill="#fff"/>
    <path d="M190.78 70.797c-5.479 4.72-13.434 7.07-23.845 7.07s-18.409-2.35-23.992-7.07c-5.583-4.699-8.375-11.81-8.375-21.291V13.245c0-1.643 1.868-3.12 5.646-4.45 3.758-1.31 8.124-1.975 13.119-1.975 4.996 0 6.591.748 7.788 2.266.86 1.185 1.301 2.204 1.301 3.057v29.441c0 7.444.273 12.371.84 14.762.566 2.412 1.784 3.598 3.631 3.598s3.043-1.165 3.547-3.514q.756-3.494.756-14.97V13.244c0-1.643 1.868-3.12 5.646-4.45 3.757-1.31 8.102-1.975 13.014-1.975s6.843.748 7.976 2.266q1.197 1.777 1.197 3.057v37.342c0 9.481-2.75 16.592-8.228 21.291zm43.344 6.279h-21.85c-3.317 0-5.563-.228-6.675-.686q-1.7-.686-1.7-2.183v-63.54c0-3.161 9.613-4.741 28.819-4.741s18.66 1.06 22.837 3.16q6.392 3.275 8.187 8.296 1.007 2.963 1.007 6.924c0 5.136-.882 8.982-2.645 11.56s-3.673 4.013-5.73 4.346c3.128.665 5.709 2.183 7.787 4.553 2.057 2.37 3.086 6.383 3.086 12.06 0 5.676-2.036 11.456-6.087 14.617-3.527 2.765-8.921 4.512-16.163 5.24-3.064.27-6.675.394-10.873.394m.084-43.08c3.401 0 5.08-2.247 5.08-6.717s-.441-3.909-1.343-4.99c-.903-1.081-1.91-1.622-3.044-1.622h-3.19v13.349h2.497zm-2.476 28.36h2.497c3.401 0 5.08-2.246 5.08-6.716s-.441-3.91-1.343-4.99c-.903-1.082-1.911-1.622-3.044-1.622h-3.19v13.348z" fill="#2B1C11"/>
    <path d="M302.846 76.286c-4.051.52-8.102.79-12.111.79s-6.633-.208-7.829-.644c-1.197-.437-1.806-1.165-1.806-2.225V57.012c-13.16-26.676-19.751-41.168-19.751-43.476s2.225-2.828 6.675-4.346 9.151-2.266 14.063-2.266 9.676 1.85 10.075 5.53l2.687 26.573h1.091l1.89-25.886c.126-1.85 2.497-3.348 7.073-4.491 4.597-1.144 8.942-1.726 13.077-1.726s6.99.603 8.585 1.788 2.393 2.433 2.393 3.763-6.675 16.114-20.046 44.558v17.195c0 .852-2.036 1.538-6.087 2.079zm-181.649-26.78c2.918-1.85 5.269-4.553 7.032-8.15s2.645-8.006 2.645-13.245c0-5.24-.903-9.273-2.687-12.101-1.008-1.58-2.036-2.953-3.086-4.096-1.07-1.144-2.539-2.1-4.428-2.807a79 79 0 0 0-5.185-1.788c-1.553-.458-3.673-.79-6.339-.998a123 123 0 0 0-6.927-.354c-1.952-.041-6.276-.041-12.909-.041s-12.153.353-16.52 1.08c-4.365.729-6.527 1.935-6.527 3.66v28.36c0 1.207.273 1.456 1.301 2.6 3.716 3.846 7.872 3.909 12.469.145 5.709-6.133 5.373-11.914-1.008-21.478-1.616-2.412-2.477-3.493-.798-4.283 6.046-3.015 10.537-1.871 12.972 3.638 2.582 5.843 8.879 7.798 14.421 8.317 4.533.354 6.129 1.227 5.73 7.298-.798 9.253-12.993 8.858-30.268 11.457-6.612.998-11.628 5.323-14.819 10.437v17.05c0 .998.588 1.705 1.742 2.183 1.155.457 3.8.686 7.871.686 4.073 0 8.166-.27 12.217-.79 4.05-.52 6.087-1.227 6.087-2.08v-20.25l1.7.103 6.486 20.356c.399 1.123 1.322 1.85 2.792 2.183q2.204.5 7.871.499c13.098 0 19.647-1.622 19.647-4.844s-3.82-10.812-11.482-22.726z" fill="#2B1C11"/>
    <path d="M89.23 22.788a2.71 2.71 0 0 0-2.73-2.703 2.71 2.71 0 0 0-2.728 2.703 2.71 2.71 0 0 0 2.728 2.703 2.71 2.71 0 0 0 2.73-2.703" fill="#2B1C11"/>
  </g>
  <defs>
    <clipPath id="a">
      <path d="M0 0h329v84H0z" fill="#fff"/>
    </clipPath>
  </defs>
</svg>