<?xml version="1.0" encoding="utf-8"?>
<svg xmlns="http://www.w3.org/2000/svg" fill="none" height="73" width="72">
  <path d="M18 42.583q0 3.954 1.575 7.49a18.5 18.5 0 0 0 4.5 6.198 3.6 3.6 0 0 1-.075-.684v-.685q0-2.433.9-4.562t2.625-3.879L36 38.022l8.475 8.44q1.725 1.75 2.625 3.879t.9 4.562v.684q0 .304-.075.685a18.5 18.5 0 0 0 4.5-6.198Q54 46.537 54 42.583q0-3.801-1.388-7.186a18.6 18.6 0 0 0-4.012-6.045q-1.5.989-3.15 1.483a11.7 11.7 0 0 1-3.375.494q-4.65 0-8.062-3.117-3.413-3.12-3.938-7.68Q27.15 23.04 24.9 25.74t-3.787 5.475a25.5 25.5 0 0 0-2.325 5.665A21.6 21.6 0 0 0 18 42.583m18 3.955-4.275 4.258a6 6 0 0 0-1.275 1.9 5.6 5.6 0 0 0-.45 2.206q0 2.433 1.762 4.182T36 60.834t4.237-1.75T42 54.902q0-1.217-.45-2.243a6.2 6.2 0 0 0-1.275-1.863zm0-37.413v10.038q0 2.585 1.763 4.334t4.312 1.749q1.35 0 2.512-.57 1.163-.57 2.063-1.711L48 21.292q5.55 3.194 8.775 8.897T60 42.583q0 10.19-6.975 17.262T36 66.917t-17.025-7.072T12 42.583q0-9.81 6.488-18.63Q24.975 15.133 36 9.125" fill="#2B1C11"/>
</svg>