<?xml version="1.0" encoding="utf-8"?>
<svg xmlns="http://www.w3.org/2000/svg" fill="none" height="494" width="457">
  <g clip-path="url(#a)" fill="#DB9E71">
    <path d="M378.162 302.579c20.071-12.848 36.242-31.615 48.371-56.59 12.129-24.974 18.194-55.578 18.194-91.957s-6.209-64.384-18.482-84.017c-6.931-10.972-14.006-20.5-21.226-28.44-7.364-7.94-17.471-14.58-30.467-19.488-12.995-5.052-24.979-9.095-35.664-12.415-10.685-3.176-25.269-5.486-43.607-6.93S261.06.578 247.632.29C234.203 0 204.459 0 158.831 0S74.939 2.454 44.906 7.507C15.016 12.559 0 21.077 0 32.914v196.907c0 8.373 1.877 10.105 8.952 18.045 25.558 26.707 54.147 27.14 85.769 1.011 39.275-42.587 36.964-82.719-6.93-149.124-11.12-16.746-17.04-24.253-5.489-29.738 41.585-20.933 72.485-12.993 89.234 25.263 17.761 40.565 61.078 54.135 99.198 57.744 31.188 2.454 42.162 8.517 39.419 50.67-5.487 64.24-89.379 61.497-208.213 79.542-45.483 6.93-79.992 36.957-101.94 72.469v118.375c0 6.93 4.043 11.838 11.985 15.158C19.926 492.412 38.119 494 66.13 494s56.169-1.877 84.036-5.486 41.874-8.517 41.874-14.436V333.472l11.696.721 44.617 141.329c2.743 7.795 9.097 12.848 19.204 15.158q15.16 3.464 54.147 3.464c90.1 0 135.151-11.26 135.151-33.636 0-22.375-26.28-75.067-78.983-157.785z"/>
    <path d="M158.109 117.076a18.73 18.73 0 0 0-18.771-18.767 18.73 18.73 0 0 0-18.771 18.767 18.73 18.73 0 0 0 18.771 18.767 18.73 18.73 0 0 0 18.771-18.767"/>
  </g>
  <defs>
    <clipPath id="a">
      <path d="M0 0h457v494H0z" fill="#fff"/>
    </clipPath>
  </defs>
</svg>