<?xml version="1.0" encoding="utf-8"?>
<svg xmlns="http://www.w3.org/2000/svg" fill="none" height="71" width="71">
  <path d="M44.375 35.5q-3.697 0-6.286-2.589-2.589-2.587-2.589-6.286 0-3.697 2.589-6.286 2.587-2.589 6.286-2.589 3.697 0 6.286 2.589 2.589 2.587 2.589 6.286 0 3.697-2.589 6.286-2.587 2.589-6.286 2.589m-20.708 8.875q-2.44 0-4.179-1.738-1.738-1.739-1.738-4.179V14.792q0-2.44 1.738-4.179 1.739-1.738 4.179-1.738h41.416q2.44 0 4.179 1.738Q71 12.352 71 14.792v23.666q0 2.44-1.738 4.179-1.739 1.738-4.179 1.738zm5.916-5.917h29.584q0-2.44 1.738-4.178t4.178-1.738V20.708q-2.44 0-4.178-1.738t-1.738-4.178H29.583q0 2.44-1.738 4.178t-4.178 1.738v11.834q2.44 0 4.178 1.738t1.738 4.178m29.584 20.709H8.875q-2.44 0-4.179-1.738-1.738-1.738-1.738-4.179V20.708h5.917V53.25h50.292z" fill="#2B1C11"/>
</svg>