<?xml version="1.0" encoding="utf-8"?>
<svg xmlns="http://www.w3.org/2000/svg" fill="none" height="69" width="69">
  <path d="M14.375 63.25q-2.372 0-4.06-1.69-1.69-1.688-1.69-4.06V25.084a6.3 6.3 0 0 1-2.084-2.048q-.79-1.258-.791-2.911V11.5q0-2.372 1.69-4.06 1.688-1.69 4.06-1.69h46q2.372 0 4.06 1.69 1.69 1.688 1.69 4.06v8.625q0 1.653-.79 2.91a6.3 6.3 0 0 1-2.085 2.05V57.5q0 2.372-1.69 4.06-1.688 1.69-4.06 1.69zm0-37.375V57.5h40.25V25.875zm-2.875-5.75h46V11.5h-46zM25.875 40.25h17.25V34.5h-17.25z" fill="#2B1C11"/>
</svg>